<mxfile modified="2024-02-29T16:42:40.760Z" host="app.diagrams.net" agent="Mozilla/5.0 (Windows NT 10.0; Win64; x64) AppleWebKit/537.36 (KHTML, like Gecko) Chrome/122.0.0.0 Safari/537.36" etag="qxnyh9IMFr1hm7QF7Z68" version="23.1.7" type="github">
  <diagram id="Ht1M8jgEwFfnCIfOTk4-" name="Page-1">
    <mxGraphModel dx="4783" dy="3900" grid="1" gridSize="10" guides="1" tooltips="1" connect="1" arrows="1" fold="1" page="1" pageScale="1" pageWidth="1169" pageHeight="827" math="0" shadow="0">
      <root>
        <mxCell id="0" />
        <mxCell id="1" parent="0" />
        <mxCell id="NtKVwXDE8uXWN5UhaUdf-4" value="Region" style="points=[[0,0],[0.25,0],[0.5,0],[0.75,0],[1,0],[1,0.25],[1,0.5],[1,0.75],[1,1],[0.75,1],[0.5,1],[0.25,1],[0,1],[0,0.75],[0,0.5],[0,0.25]];outlineConnect=0;gradientColor=none;html=1;whiteSpace=wrap;fontSize=12;fontStyle=0;container=1;pointerEvents=0;collapsible=0;recursiveResize=0;shape=mxgraph.aws4.group;grIcon=mxgraph.aws4.group_region;strokeColor=#00A4A6;fillColor=none;verticalAlign=top;align=left;spacingLeft=30;fontColor=#147EBA;dashed=1;" parent="1" vertex="1">
          <mxGeometry x="170" y="-370" width="960" height="930" as="geometry" />
        </mxCell>
        <mxCell id="NtKVwXDE8uXWN5UhaUdf-1" value="VPC" style="points=[[0,0],[0.25,0],[0.5,0],[0.75,0],[1,0],[1,0.25],[1,0.5],[1,0.75],[1,1],[0.75,1],[0.5,1],[0.25,1],[0,1],[0,0.75],[0,0.5],[0,0.25]];outlineConnect=0;gradientColor=none;html=1;whiteSpace=wrap;fontSize=12;fontStyle=0;container=1;pointerEvents=0;collapsible=0;recursiveResize=0;shape=mxgraph.aws4.group;grIcon=mxgraph.aws4.group_vpc2;strokeColor=#8C4FFF;fillColor=none;verticalAlign=top;align=left;spacingLeft=30;fontColor=#AAB7B8;dashed=0;" parent="NtKVwXDE8uXWN5UhaUdf-4" vertex="1">
          <mxGeometry x="40" y="40" width="880" height="870" as="geometry" />
        </mxCell>
        <mxCell id="NtKVwXDE8uXWN5UhaUdf-13" value="" style="sketch=0;outlineConnect=0;fontColor=#232F3E;gradientColor=none;fillColor=#8C4FFF;strokeColor=none;dashed=0;verticalLabelPosition=bottom;verticalAlign=top;align=center;html=1;fontSize=12;fontStyle=0;aspect=fixed;pointerEvents=1;shape=mxgraph.aws4.nat_gateway;" parent="1" vertex="1">
          <mxGeometry x="2461" y="-330" width="78" height="78" as="geometry" />
        </mxCell>
        <mxCell id="NtKVwXDE8uXWN5UhaUdf-15" value="Application Load Balancer" style="sketch=0;outlineConnect=0;fontColor=#232F3E;gradientColor=none;strokeColor=#ffffff;fillColor=#232F3E;dashed=0;verticalLabelPosition=middle;verticalAlign=bottom;align=center;html=1;whiteSpace=wrap;fontSize=10;fontStyle=1;spacing=3;shape=mxgraph.aws4.productIcon;prIcon=mxgraph.aws4.application_load_balancer;" parent="1" vertex="1">
          <mxGeometry x="2445" y="-1248" width="80" height="110" as="geometry" />
        </mxCell>
        <mxCell id="NtKVwXDE8uXWN5UhaUdf-82" style="edgeStyle=orthogonalEdgeStyle;rounded=0;orthogonalLoop=1;jettySize=auto;html=1;entryX=0.5;entryY=0;entryDx=0;entryDy=0;" parent="1" source="NtKVwXDE8uXWN5UhaUdf-16" target="NtKVwXDE8uXWN5UhaUdf-28" edge="1">
          <mxGeometry relative="1" as="geometry" />
        </mxCell>
        <mxCell id="NtKVwXDE8uXWN5UhaUdf-83" style="edgeStyle=orthogonalEdgeStyle;rounded=0;orthogonalLoop=1;jettySize=auto;html=1;entryX=0.5;entryY=0;entryDx=0;entryDy=0;" parent="1" source="NtKVwXDE8uXWN5UhaUdf-16" target="NtKVwXDE8uXWN5UhaUdf-29" edge="1">
          <mxGeometry relative="1" as="geometry" />
        </mxCell>
        <mxCell id="NtKVwXDE8uXWN5UhaUdf-16" value="" style="image;aspect=fixed;perimeter=ellipsePerimeter;html=1;align=center;shadow=0;dashed=0;spacingTop=3;image=img/lib/active_directory/internet_globe.svg;" parent="1" vertex="1">
          <mxGeometry x="2439" y="-1610" width="90" height="90" as="geometry" />
        </mxCell>
        <mxCell id="NtKVwXDE8uXWN5UhaUdf-89" style="edgeStyle=orthogonalEdgeStyle;rounded=0;orthogonalLoop=1;jettySize=auto;html=1;" parent="1" source="NtKVwXDE8uXWN5UhaUdf-28" target="NtKVwXDE8uXWN5UhaUdf-49" edge="1">
          <mxGeometry relative="1" as="geometry">
            <Array as="points">
              <mxPoint x="2534" y="-1428" />
              <mxPoint x="2534" y="-1428" />
            </Array>
          </mxGeometry>
        </mxCell>
        <mxCell id="NtKVwXDE8uXWN5UhaUdf-28" value="port80" style="fontStyle=0;labelPosition=right;verticalLabelPosition=middle;align=left;verticalAlign=middle;spacingLeft=2;" parent="1" vertex="1">
          <mxGeometry x="2539" y="-1435" width="30" height="30" as="geometry" />
        </mxCell>
        <mxCell id="NtKVwXDE8uXWN5UhaUdf-91" style="edgeStyle=orthogonalEdgeStyle;rounded=0;orthogonalLoop=1;jettySize=auto;html=1;" parent="1" source="NtKVwXDE8uXWN5UhaUdf-29" target="NtKVwXDE8uXWN5UhaUdf-46" edge="1">
          <mxGeometry relative="1" as="geometry" />
        </mxCell>
        <mxCell id="NtKVwXDE8uXWN5UhaUdf-29" value="port443" style="fontStyle=0;labelPosition=right;verticalLabelPosition=middle;align=left;verticalAlign=middle;spacingLeft=2;" parent="1" vertex="1">
          <mxGeometry x="2390" y="-1435" width="30" height="30" as="geometry" />
        </mxCell>
        <mxCell id="NtKVwXDE8uXWN5UhaUdf-43" value="" style="sketch=0;aspect=fixed;pointerEvents=1;shadow=0;dashed=0;html=1;strokeColor=none;labelPosition=center;verticalLabelPosition=bottom;verticalAlign=top;align=center;shape=mxgraph.mscae.enterprise.not_allowed;fillColor=#EA1C24;" parent="1" vertex="1">
          <mxGeometry x="2519" y="-1328" width="20" height="20" as="geometry" />
        </mxCell>
        <mxCell id="NtKVwXDE8uXWN5UhaUdf-92" style="edgeStyle=orthogonalEdgeStyle;rounded=0;orthogonalLoop=1;jettySize=auto;html=1;" parent="1" source="NtKVwXDE8uXWN5UhaUdf-46" target="NtKVwXDE8uXWN5UhaUdf-15" edge="1">
          <mxGeometry relative="1" as="geometry">
            <Array as="points">
              <mxPoint x="2433" y="-1278" />
              <mxPoint x="2464" y="-1278" />
            </Array>
          </mxGeometry>
        </mxCell>
        <mxCell id="NtKVwXDE8uXWN5UhaUdf-46" value="" style="sketch=0;html=1;aspect=fixed;strokeColor=none;shadow=0;align=center;fillColor=#2D9C5E;verticalAlign=top;labelPosition=center;verticalLabelPosition=bottom;shape=mxgraph.gcp2.check" parent="1" vertex="1">
          <mxGeometry x="2420" y="-1328" width="25" height="20" as="geometry" />
        </mxCell>
        <mxCell id="NtKVwXDE8uXWN5UhaUdf-49" value="" style="sketch=0;html=1;aspect=fixed;strokeColor=none;shadow=0;align=center;fillColor=#2D9C5E;verticalAlign=top;labelPosition=center;verticalLabelPosition=bottom;shape=mxgraph.gcp2.check" parent="1" vertex="1">
          <mxGeometry x="2472.5" y="-1435" width="25" height="20" as="geometry" />
        </mxCell>
        <mxCell id="NtKVwXDE8uXWN5UhaUdf-64" value="Route table" style="sketch=0;outlineConnect=0;fontColor=#232F3E;gradientColor=none;strokeColor=#232F3E;fillColor=#ffffff;dashed=0;verticalLabelPosition=bottom;verticalAlign=top;align=center;html=1;fontSize=12;fontStyle=0;aspect=fixed;shape=mxgraph.aws4.resourceIcon;resIcon=mxgraph.aws4.route_table;" parent="1" vertex="1">
          <mxGeometry x="1010" y="-810" width="60" height="60" as="geometry" />
        </mxCell>
        <mxCell id="NtKVwXDE8uXWN5UhaUdf-65" value="Route table" style="sketch=0;outlineConnect=0;fontColor=#232F3E;gradientColor=none;strokeColor=#232F3E;fillColor=#ffffff;dashed=0;verticalLabelPosition=bottom;verticalAlign=top;align=center;html=1;fontSize=12;fontStyle=0;aspect=fixed;shape=mxgraph.aws4.resourceIcon;resIcon=mxgraph.aws4.route_table;" parent="1" vertex="1">
          <mxGeometry x="1080" y="-810" width="60" height="60" as="geometry" />
        </mxCell>
        <mxCell id="NtKVwXDE8uXWN5UhaUdf-66" value="Route table" style="sketch=0;outlineConnect=0;fontColor=#232F3E;gradientColor=none;strokeColor=#232F3E;fillColor=#ffffff;dashed=0;verticalLabelPosition=bottom;verticalAlign=top;align=center;html=1;fontSize=12;fontStyle=0;aspect=fixed;shape=mxgraph.aws4.resourceIcon;resIcon=mxgraph.aws4.route_table;" parent="1" vertex="1">
          <mxGeometry x="1150" y="-810" width="60" height="60" as="geometry" />
        </mxCell>
        <mxCell id="NtKVwXDE8uXWN5UhaUdf-67" value="Public subnet" style="points=[[0,0],[0.25,0],[0.5,0],[0.75,0],[1,0],[1,0.25],[1,0.5],[1,0.75],[1,1],[0.75,1],[0.5,1],[0.25,1],[0,1],[0,0.75],[0,0.5],[0,0.25]];outlineConnect=0;gradientColor=none;html=1;whiteSpace=wrap;fontSize=12;fontStyle=0;container=1;pointerEvents=0;collapsible=0;recursiveResize=0;shape=mxgraph.aws4.group;grIcon=mxgraph.aws4.group_security_group;grStroke=0;strokeColor=#7AA116;fillColor=#F2F6E8;verticalAlign=top;align=left;spacingLeft=30;fontColor=#248814;dashed=0;" parent="1" vertex="1">
          <mxGeometry x="360" y="-240" width="160" height="160" as="geometry" />
        </mxCell>
        <mxCell id="NtKVwXDE8uXWN5UhaUdf-69" value="Public subnet" style="points=[[0,0],[0.25,0],[0.5,0],[0.75,0],[1,0],[1,0.25],[1,0.5],[1,0.75],[1,1],[0.75,1],[0.5,1],[0.25,1],[0,1],[0,0.75],[0,0.5],[0,0.25]];outlineConnect=0;gradientColor=none;html=1;whiteSpace=wrap;fontSize=12;fontStyle=0;container=1;pointerEvents=0;collapsible=0;recursiveResize=0;shape=mxgraph.aws4.group;grIcon=mxgraph.aws4.group_security_group;grStroke=0;strokeColor=#7AA116;fillColor=#F2F6E8;verticalAlign=top;align=left;spacingLeft=30;fontColor=#248814;dashed=0;" parent="1" vertex="1">
          <mxGeometry x="560" y="-240" width="160" height="160" as="geometry" />
        </mxCell>
        <mxCell id="NtKVwXDE8uXWN5UhaUdf-70" value="Public subnet" style="points=[[0,0],[0.25,0],[0.5,0],[0.75,0],[1,0],[1,0.25],[1,0.5],[1,0.75],[1,1],[0.75,1],[0.5,1],[0.25,1],[0,1],[0,0.75],[0,0.5],[0,0.25]];outlineConnect=0;gradientColor=none;html=1;whiteSpace=wrap;fontSize=12;fontStyle=0;container=1;pointerEvents=0;collapsible=0;recursiveResize=0;shape=mxgraph.aws4.group;grIcon=mxgraph.aws4.group_security_group;grStroke=0;strokeColor=#7AA116;fillColor=#F2F6E8;verticalAlign=top;align=left;spacingLeft=30;fontColor=#248814;dashed=0;" parent="1" vertex="1">
          <mxGeometry x="760" y="-240" width="160" height="160" as="geometry" />
        </mxCell>
        <mxCell id="NtKVwXDE8uXWN5UhaUdf-71" value="Private subnet" style="points=[[0,0],[0.25,0],[0.5,0],[0.75,0],[1,0],[1,0.25],[1,0.5],[1,0.75],[1,1],[0.75,1],[0.5,1],[0.25,1],[0,1],[0,0.75],[0,0.5],[0,0.25]];outlineConnect=0;gradientColor=none;html=1;whiteSpace=wrap;fontSize=12;fontStyle=0;container=1;pointerEvents=0;collapsible=0;recursiveResize=0;shape=mxgraph.aws4.group;grIcon=mxgraph.aws4.group_security_group;grStroke=0;strokeColor=#00A4A6;fillColor=#E6F6F7;verticalAlign=top;align=left;spacingLeft=30;fontColor=#147EBA;dashed=0;" parent="1" vertex="1">
          <mxGeometry x="360" y="70" width="160" height="160" as="geometry" />
        </mxCell>
        <mxCell id="NtKVwXDE8uXWN5UhaUdf-72" value="Private subnet" style="points=[[0,0],[0.25,0],[0.5,0],[0.75,0],[1,0],[1,0.25],[1,0.5],[1,0.75],[1,1],[0.75,1],[0.5,1],[0.25,1],[0,1],[0,0.75],[0,0.5],[0,0.25]];outlineConnect=0;gradientColor=none;html=1;whiteSpace=wrap;fontSize=12;fontStyle=0;container=1;pointerEvents=0;collapsible=0;recursiveResize=0;shape=mxgraph.aws4.group;grIcon=mxgraph.aws4.group_security_group;grStroke=0;strokeColor=#00A4A6;fillColor=#E6F6F7;verticalAlign=top;align=left;spacingLeft=30;fontColor=#147EBA;dashed=0;" parent="1" vertex="1">
          <mxGeometry x="560" y="70" width="160" height="160" as="geometry" />
        </mxCell>
        <mxCell id="NtKVwXDE8uXWN5UhaUdf-73" value="Private subnet" style="points=[[0,0],[0.25,0],[0.5,0],[0.75,0],[1,0],[1,0.25],[1,0.5],[1,0.75],[1,1],[0.75,1],[0.5,1],[0.25,1],[0,1],[0,0.75],[0,0.5],[0,0.25]];outlineConnect=0;gradientColor=none;html=1;whiteSpace=wrap;fontSize=12;fontStyle=0;container=1;pointerEvents=0;collapsible=0;recursiveResize=0;shape=mxgraph.aws4.group;grIcon=mxgraph.aws4.group_security_group;grStroke=0;strokeColor=#00A4A6;fillColor=#E6F6F7;verticalAlign=top;align=left;spacingLeft=30;fontColor=#147EBA;dashed=0;" parent="1" vertex="1">
          <mxGeometry x="770" y="80" width="160" height="160" as="geometry" />
        </mxCell>
        <mxCell id="NtKVwXDE8uXWN5UhaUdf-74" value="Private subnet" style="points=[[0,0],[0.25,0],[0.5,0],[0.75,0],[1,0],[1,0.25],[1,0.5],[1,0.75],[1,1],[0.75,1],[0.5,1],[0.25,1],[0,1],[0,0.75],[0,0.5],[0,0.25]];outlineConnect=0;gradientColor=none;html=1;whiteSpace=wrap;fontSize=12;fontStyle=0;container=1;pointerEvents=0;collapsible=0;recursiveResize=0;shape=mxgraph.aws4.group;grIcon=mxgraph.aws4.group_security_group;grStroke=0;strokeColor=#00A4A6;fillColor=#E6F6F7;verticalAlign=top;align=left;spacingLeft=30;fontColor=#147EBA;dashed=0;" parent="1" vertex="1">
          <mxGeometry x="360" y="270" width="160" height="160" as="geometry" />
        </mxCell>
        <mxCell id="NtKVwXDE8uXWN5UhaUdf-75" value="Private subnet" style="points=[[0,0],[0.25,0],[0.5,0],[0.75,0],[1,0],[1,0.25],[1,0.5],[1,0.75],[1,1],[0.75,1],[0.5,1],[0.25,1],[0,1],[0,0.75],[0,0.5],[0,0.25]];outlineConnect=0;gradientColor=none;html=1;whiteSpace=wrap;fontSize=12;fontStyle=0;container=1;pointerEvents=0;collapsible=0;recursiveResize=0;shape=mxgraph.aws4.group;grIcon=mxgraph.aws4.group_security_group;grStroke=0;strokeColor=#00A4A6;fillColor=#E6F6F7;verticalAlign=top;align=left;spacingLeft=30;fontColor=#147EBA;dashed=0;" parent="1" vertex="1">
          <mxGeometry x="560" y="270" width="160" height="160" as="geometry" />
        </mxCell>
        <mxCell id="NtKVwXDE8uXWN5UhaUdf-76" value="Private subnet" style="points=[[0,0],[0.25,0],[0.5,0],[0.75,0],[1,0],[1,0.25],[1,0.5],[1,0.75],[1,1],[0.75,1],[0.5,1],[0.25,1],[0,1],[0,0.75],[0,0.5],[0,0.25]];outlineConnect=0;gradientColor=none;html=1;whiteSpace=wrap;fontSize=12;fontStyle=0;container=1;pointerEvents=0;collapsible=0;recursiveResize=0;shape=mxgraph.aws4.group;grIcon=mxgraph.aws4.group_security_group;grStroke=0;strokeColor=#00A4A6;fillColor=#E6F6F7;verticalAlign=top;align=left;spacingLeft=30;fontColor=#147EBA;dashed=0;" parent="1" vertex="1">
          <mxGeometry x="760" y="270" width="160" height="160" as="geometry" />
        </mxCell>
        <mxCell id="NtKVwXDE8uXWN5UhaUdf-88" style="edgeStyle=orthogonalEdgeStyle;rounded=0;orthogonalLoop=1;jettySize=auto;html=1;entryX=0.5;entryY=0;entryDx=0;entryDy=0;entryPerimeter=0;" parent="1" source="NtKVwXDE8uXWN5UhaUdf-28" target="NtKVwXDE8uXWN5UhaUdf-43" edge="1">
          <mxGeometry relative="1" as="geometry" />
        </mxCell>
        <mxCell id="NtKVwXDE8uXWN5UhaUdf-93" style="edgeStyle=orthogonalEdgeStyle;rounded=0;orthogonalLoop=1;jettySize=auto;html=1;entryX=0.81;entryY=0.017;entryDx=0;entryDy=0;entryPerimeter=0;" parent="1" source="NtKVwXDE8uXWN5UhaUdf-43" target="NtKVwXDE8uXWN5UhaUdf-15" edge="1">
          <mxGeometry relative="1" as="geometry" />
        </mxCell>
        <mxCell id="NtKVwXDE8uXWN5UhaUdf-94" style="edgeStyle=orthogonalEdgeStyle;rounded=0;orthogonalLoop=1;jettySize=auto;html=1;entryX=0.997;entryY=0.129;entryDx=0;entryDy=0;entryPerimeter=0;" parent="1" source="NtKVwXDE8uXWN5UhaUdf-49" target="NtKVwXDE8uXWN5UhaUdf-29" edge="1">
          <mxGeometry relative="1" as="geometry">
            <Array as="points">
              <mxPoint x="2464" y="-1431" />
              <mxPoint x="2464" y="-1431" />
            </Array>
          </mxGeometry>
        </mxCell>
        <mxCell id="NtKVwXDE8uXWN5UhaUdf-9" value="Amazon S3&lt;br&gt;Bucket&lt;br&gt;" style="outlineConnect=0;fontColor=#232F3E;gradientColor=none;fillColor=#277116;strokeColor=none;dashed=0;verticalLabelPosition=bottom;verticalAlign=top;align=center;html=1;fontSize=12;fontStyle=0;aspect=fixed;pointerEvents=1;shape=mxgraph.aws4.bucket;labelBackgroundColor=#ffffff;" parent="1" vertex="1">
          <mxGeometry x="200" y="610" width="65.38" height="68" as="geometry" />
        </mxCell>
        <mxCell id="NtKVwXDE8uXWN5UhaUdf-53" value="" style="sketch=0;outlineConnect=0;fontColor=#232F3E;gradientColor=none;fillColor=#ED7100;strokeColor=none;dashed=0;verticalLabelPosition=bottom;verticalAlign=top;align=center;html=1;fontSize=12;fontStyle=0;aspect=fixed;pointerEvents=1;shape=mxgraph.aws4.t2_instance;" parent="1" vertex="1">
          <mxGeometry x="1516" y="-2.5" width="48" height="48" as="geometry" />
        </mxCell>
        <mxCell id="NtKVwXDE8uXWN5UhaUdf-54" value="" style="sketch=0;outlineConnect=0;fontColor=#232F3E;gradientColor=none;fillColor=#ED7100;strokeColor=none;dashed=0;verticalLabelPosition=bottom;verticalAlign=top;align=center;html=1;fontSize=12;fontStyle=0;aspect=fixed;pointerEvents=1;shape=mxgraph.aws4.t2_instance;" parent="1" vertex="1">
          <mxGeometry x="2234" y="-2.5" width="48" height="48" as="geometry" />
        </mxCell>
        <mxCell id="NtKVwXDE8uXWN5UhaUdf-52" value="" style="sketch=0;outlineConnect=0;fontColor=#232F3E;gradientColor=none;fillColor=#ED7100;strokeColor=none;dashed=0;verticalLabelPosition=bottom;verticalAlign=top;align=center;html=1;fontSize=12;fontStyle=0;aspect=fixed;pointerEvents=1;shape=mxgraph.aws4.t2_instance;" parent="1" vertex="1">
          <mxGeometry x="2959" y="-2.5" width="48" height="48" as="geometry" />
        </mxCell>
        <mxCell id="NtKVwXDE8uXWN5UhaUdf-115" style="edgeStyle=orthogonalEdgeStyle;rounded=0;orthogonalLoop=1;jettySize=auto;html=1;" parent="1" source="NtKVwXDE8uXWN5UhaUdf-97" target="NtKVwXDE8uXWN5UhaUdf-13" edge="1">
          <mxGeometry relative="1" as="geometry">
            <Array as="points">
              <mxPoint x="2258" y="-290" />
            </Array>
          </mxGeometry>
        </mxCell>
        <mxCell id="NtKVwXDE8uXWN5UhaUdf-97" value="Backend&amp;nbsp;subnet" style="sketch=0;outlineConnect=0;gradientColor=none;html=1;whiteSpace=wrap;fontSize=12;fontStyle=0;shape=mxgraph.aws4.group;grIcon=mxgraph.aws4.group_subnet;strokeColor=#00CC00;fillColor=none;verticalAlign=top;align=left;spacingLeft=30;fontColor=#879196;dashed=0;" parent="1" vertex="1">
          <mxGeometry x="2198" y="-40" width="120" height="120" as="geometry" />
        </mxCell>
        <mxCell id="NtKVwXDE8uXWN5UhaUdf-121" style="edgeStyle=orthogonalEdgeStyle;rounded=0;orthogonalLoop=1;jettySize=auto;html=1;" parent="1" source="NtKVwXDE8uXWN5UhaUdf-98" target="NtKVwXDE8uXWN5UhaUdf-118" edge="1">
          <mxGeometry relative="1" as="geometry">
            <Array as="points">
              <mxPoint x="2983" y="-280" />
            </Array>
          </mxGeometry>
        </mxCell>
        <mxCell id="NtKVwXDE8uXWN5UhaUdf-98" value="Database subnet" style="sketch=0;outlineConnect=0;gradientColor=none;html=1;whiteSpace=wrap;fontSize=12;fontStyle=0;shape=mxgraph.aws4.group;grIcon=mxgraph.aws4.group_subnet;strokeColor=#FF6666;fillColor=none;verticalAlign=top;align=left;spacingLeft=30;fontColor=#879196;dashed=0;" parent="1" vertex="1">
          <mxGeometry x="2923" y="-37" width="120" height="117" as="geometry" />
        </mxCell>
        <mxCell id="NtKVwXDE8uXWN5UhaUdf-112" style="edgeStyle=orthogonalEdgeStyle;rounded=0;orthogonalLoop=1;jettySize=auto;html=1;" parent="1" source="NtKVwXDE8uXWN5UhaUdf-100" target="NtKVwXDE8uXWN5UhaUdf-14" edge="1">
          <mxGeometry relative="1" as="geometry">
            <Array as="points">
              <mxPoint x="1540" y="-290" />
            </Array>
          </mxGeometry>
        </mxCell>
        <mxCell id="NtKVwXDE8uXWN5UhaUdf-100" value="Frontend subnet" style="sketch=0;outlineConnect=0;gradientColor=none;html=1;whiteSpace=wrap;fontSize=12;fontStyle=0;shape=mxgraph.aws4.group;grIcon=mxgraph.aws4.group_subnet;strokeColor=#3399FF;fillColor=none;verticalAlign=top;align=left;spacingLeft=30;fontColor=#879196;dashed=0;" parent="1" vertex="1">
          <mxGeometry x="1480" y="-40" width="120" height="120" as="geometry" />
        </mxCell>
        <mxCell id="NtKVwXDE8uXWN5UhaUdf-114" style="edgeStyle=orthogonalEdgeStyle;rounded=0;orthogonalLoop=1;jettySize=auto;html=1;" parent="1" source="NtKVwXDE8uXWN5UhaUdf-101" target="NtKVwXDE8uXWN5UhaUdf-14" edge="1">
          <mxGeometry relative="1" as="geometry">
            <Array as="points">
              <mxPoint x="2020" y="-290" />
            </Array>
          </mxGeometry>
        </mxCell>
        <mxCell id="NtKVwXDE8uXWN5UhaUdf-101" value="Frontend subnet" style="sketch=0;outlineConnect=0;gradientColor=none;html=1;whiteSpace=wrap;fontSize=12;fontStyle=0;shape=mxgraph.aws4.group;grIcon=mxgraph.aws4.group_subnet;strokeColor=#3399FF;fillColor=none;verticalAlign=top;align=left;spacingLeft=30;fontColor=#879196;dashed=0;" parent="1" vertex="1">
          <mxGeometry x="1960" y="-40" width="120" height="120" as="geometry" />
        </mxCell>
        <mxCell id="NtKVwXDE8uXWN5UhaUdf-113" style="edgeStyle=orthogonalEdgeStyle;rounded=0;orthogonalLoop=1;jettySize=auto;html=1;" parent="1" source="NtKVwXDE8uXWN5UhaUdf-102" target="NtKVwXDE8uXWN5UhaUdf-14" edge="1">
          <mxGeometry relative="1" as="geometry" />
        </mxCell>
        <mxCell id="NtKVwXDE8uXWN5UhaUdf-102" value="Frontend subnet" style="sketch=0;outlineConnect=0;gradientColor=none;html=1;whiteSpace=wrap;fontSize=12;fontStyle=0;shape=mxgraph.aws4.group;grIcon=mxgraph.aws4.group_subnet;strokeColor=#3399FF;fillColor=none;verticalAlign=top;align=left;spacingLeft=30;fontColor=#879196;dashed=0;" parent="1" vertex="1">
          <mxGeometry x="1720" y="-40" width="120" height="120" as="geometry" />
        </mxCell>
        <mxCell id="NtKVwXDE8uXWN5UhaUdf-117" style="edgeStyle=orthogonalEdgeStyle;rounded=0;orthogonalLoop=1;jettySize=auto;html=1;" parent="1" source="NtKVwXDE8uXWN5UhaUdf-103" target="NtKVwXDE8uXWN5UhaUdf-13" edge="1">
          <mxGeometry relative="1" as="geometry">
            <Array as="points">
              <mxPoint x="2740" y="-290" />
            </Array>
          </mxGeometry>
        </mxCell>
        <mxCell id="NtKVwXDE8uXWN5UhaUdf-103" value="Backend&amp;nbsp;subnet" style="sketch=0;outlineConnect=0;gradientColor=none;html=1;whiteSpace=wrap;fontSize=12;fontStyle=0;shape=mxgraph.aws4.group;grIcon=mxgraph.aws4.group_subnet;strokeColor=#00CC00;fillColor=none;verticalAlign=top;align=left;spacingLeft=30;fontColor=#879196;dashed=0;" parent="1" vertex="1">
          <mxGeometry x="2680" y="-40" width="120" height="120" as="geometry" />
        </mxCell>
        <mxCell id="NtKVwXDE8uXWN5UhaUdf-116" style="edgeStyle=orthogonalEdgeStyle;rounded=0;orthogonalLoop=1;jettySize=auto;html=1;" parent="1" source="NtKVwXDE8uXWN5UhaUdf-104" target="NtKVwXDE8uXWN5UhaUdf-13" edge="1">
          <mxGeometry relative="1" as="geometry" />
        </mxCell>
        <mxCell id="NtKVwXDE8uXWN5UhaUdf-104" value="Backend&amp;nbsp;subnet" style="sketch=0;outlineConnect=0;gradientColor=none;html=1;whiteSpace=wrap;fontSize=12;fontStyle=0;shape=mxgraph.aws4.group;grIcon=mxgraph.aws4.group_subnet;strokeColor=#00CC00;fillColor=none;verticalAlign=top;align=left;spacingLeft=30;fontColor=#879196;dashed=0;" parent="1" vertex="1">
          <mxGeometry x="2440" y="-40" width="120" height="120" as="geometry" />
        </mxCell>
        <mxCell id="NtKVwXDE8uXWN5UhaUdf-122" style="edgeStyle=orthogonalEdgeStyle;rounded=0;orthogonalLoop=1;jettySize=auto;html=1;" parent="1" source="NtKVwXDE8uXWN5UhaUdf-105" target="NtKVwXDE8uXWN5UhaUdf-118" edge="1">
          <mxGeometry relative="1" as="geometry">
            <Array as="points">
              <mxPoint x="3460" y="-280" />
            </Array>
          </mxGeometry>
        </mxCell>
        <mxCell id="NtKVwXDE8uXWN5UhaUdf-105" value="Database subnet" style="sketch=0;outlineConnect=0;gradientColor=none;html=1;whiteSpace=wrap;fontSize=12;fontStyle=0;shape=mxgraph.aws4.group;grIcon=mxgraph.aws4.group_subnet;strokeColor=#FF6666;fillColor=none;verticalAlign=top;align=left;spacingLeft=30;fontColor=#879196;dashed=0;" parent="1" vertex="1">
          <mxGeometry x="3400" y="-37" width="120" height="117" as="geometry" />
        </mxCell>
        <mxCell id="NtKVwXDE8uXWN5UhaUdf-120" style="edgeStyle=orthogonalEdgeStyle;rounded=0;orthogonalLoop=1;jettySize=auto;html=1;" parent="1" source="NtKVwXDE8uXWN5UhaUdf-106" target="NtKVwXDE8uXWN5UhaUdf-118" edge="1">
          <mxGeometry relative="1" as="geometry">
            <Array as="points">
              <mxPoint x="3220" y="-190" />
              <mxPoint x="3220" y="-190" />
            </Array>
          </mxGeometry>
        </mxCell>
        <mxCell id="NtKVwXDE8uXWN5UhaUdf-106" value="Database subnet" style="sketch=0;outlineConnect=0;gradientColor=none;html=1;whiteSpace=wrap;fontSize=12;fontStyle=0;shape=mxgraph.aws4.group;grIcon=mxgraph.aws4.group_subnet;strokeColor=#FF6666;fillColor=none;verticalAlign=top;align=left;spacingLeft=30;fontColor=#879196;dashed=0;" parent="1" vertex="1">
          <mxGeometry x="3160" y="-37" width="120" height="117" as="geometry" />
        </mxCell>
        <mxCell id="NtKVwXDE8uXWN5UhaUdf-14" value="" style="sketch=0;outlineConnect=0;fontColor=#232F3E;gradientColor=none;fillColor=#8C4FFF;strokeColor=none;dashed=0;verticalLabelPosition=bottom;verticalAlign=top;align=center;html=1;fontSize=12;fontStyle=0;aspect=fixed;pointerEvents=1;shape=mxgraph.aws4.internet_gateway;" parent="1" vertex="1">
          <mxGeometry x="1741" y="-330" width="78" height="78" as="geometry" />
        </mxCell>
        <mxCell id="NtKVwXDE8uXWN5UhaUdf-118" value="" style="ellipse;whiteSpace=wrap;html=1;aspect=fixed;" parent="1" vertex="1">
          <mxGeometry x="3180" y="-320" width="80" height="80" as="geometry" />
        </mxCell>
      </root>
    </mxGraphModel>
  </diagram>
</mxfile>
